<?xml version="1.0" encoding="iso-8859-1"?>
<!-- Generator: Adobe Illustrator 19.0.0, SVG Export Plug-In . SVG Version: 6.00 Build 0)  -->
<svg version="1.1" id="Layer_1" xmlns="http://www.w3.org/2000/svg" xmlns:xlink="http://www.w3.org/1999/xlink" x="0px" y="0px"
	 viewBox="0 0 512.005 512.005" style="enable-background:new 0 0 512.005 512.005;" xml:space="preserve">
<g>
	<polygon style="fill:#1D1D1B;" points="60.082,512 75.826,512 75.826,111.767 380.165,111.767 380.165,512 395.908,512 
		395.908,96.024 60.082,96.024 	"/>
	<rect x="220.126" y="119.901" style="fill:#1D1D1B;" width="15.743" height="392.104"/>
	<rect x="59.953" y="32.008" style="fill:#1D1D1B;" width="16.005" height="15.743"/>
	<rect x="91.965" y="32.008" style="fill:#1D1D1B;" width="16.004" height="15.743"/>
	<rect x="123.966" y="32.008" style="fill:#1D1D1B;" width="16.004" height="15.743"/>
	<rect x="155.977" y="32.008" style="fill:#1D1D1B;" width="16.004" height="15.743"/>
	<rect x="187.989" y="32.008" style="fill:#1D1D1B;" width="16.005" height="15.743"/>
	<rect x="219.99" y="32.008" style="fill:#1D1D1B;" width="16.004" height="15.743"/>
	<rect x="252.001" y="32.008" style="fill:#1D1D1B;" width="16.004" height="15.743"/>
	<rect x="284.013" y="32.008" style="fill:#1D1D1B;" width="16.004" height="15.743"/>
	<rect x="316.014" y="32.008" style="fill:#1D1D1B;" width="16.005" height="15.743"/>
	<rect x="348.025" y="32.008" style="fill:#1D1D1B;" width="16.005" height="15.743"/>
	<rect x="380.037" y="32.008" style="fill:#1D1D1B;" width="16.004" height="15.743"/>
	<path style="fill:#1D1D1B;" d="M427.916,0H28.075v79.76h399.841V0z M412.173,64.017H43.818V15.743h368.355V64.017z"/>
	<rect x="436.177" y="295.944" style="fill:#1D1D1B;" width="15.743" height="16.004"/>
	<rect x="436.177" y="327.955" style="fill:#1D1D1B;" width="15.743" height="16.005"/>
	<path style="fill:#1D1D1B;" d="M404.171,264.067v111.768h79.759V264.067H404.171z M468.187,360.091h-48.272V279.81h48.272V360.091z
		"/>
	
		<rect x="130.113" y="148.178" transform="matrix(0.7071 0.7071 -0.7071 0.7071 183.2015 -38.4258)" style="fill:#1D1D1B;" width="15.743" height="107.505"/>
	
		<rect x="152.122" y="218.955" transform="matrix(0.7071 0.7071 -0.7071 0.7071 213.6895 -44.0296)" style="fill:#1D1D1B;" width="15.743" height="33.953"/>
	
		<rect x="254.746" y="368.086" transform="matrix(-0.7071 0.7071 -0.7071 -0.7071 777.9961 429.658)" style="fill:#1D1D1B;" width="90.534" height="15.743"/>
	
		<rect x="320.175" y="383.686" transform="matrix(0.7071 0.7071 -0.7071 0.7071 387.3947 -111.2986)" style="fill:#1D1D1B;" width="15.743" height="56.582"/>
	
		<rect x="272.153" y="443.019" transform="matrix(0.7071 0.7071 -0.7071 0.7071 407.2829 -63.2776)" style="fill:#1D1D1B;" width="15.743" height="33.953"/>
</g>
<g>
</g>
<g>
</g>
<g>
</g>
<g>
</g>
<g>
</g>
<g>
</g>
<g>
</g>
<g>
</g>
<g>
</g>
<g>
</g>
<g>
</g>
<g>
</g>
<g>
</g>
<g>
</g>
<g>
</g>
</svg>
