<?xml version="1.0" encoding="iso-8859-1"?>
<!-- Generator: Adobe Illustrator 19.0.0, SVG Export Plug-In . SVG Version: 6.00 Build 0)  -->
<svg version="1.1" id="Capa_1" xmlns="http://www.w3.org/2000/svg" xmlns:xlink="http://www.w3.org/1999/xlink" x="0px" y="0px"
	 viewBox="0 0 463 463" style="enable-background:new 0 0 463 463;" xml:space="preserve">
<g>
	<path d="M446.776,453.681l-12.97-51.881c-2.62-10.48-11.995-17.8-22.798-17.8h-2.71L276.57,303.501l111.193-67.951
		C394.694,231.302,399,223.619,399,215.5s-4.306-15.802-11.246-20.056L276.57,127.499L408.298,47H431.5c4.142,0,7.5-3.357,7.5-7.5
		v-32c0-4.143-3.358-7.5-7.5-7.5h-400C27.358,0,24,3.357,24,7.5v32c0,4.143,3.358,7.5,7.5,7.5h23.202l131.726,80.499L75.237,195.449
		C68.306,199.698,64,207.381,64,215.5s4.306,15.802,11.245,20.056l111.184,67.946L54.702,384h-2.709
		c-10.803,0-20.178,7.319-22.798,17.8l-12.97,51.881c-0.561,2.241-0.057,4.614,1.364,6.435S21.19,463,23.5,463h416
		c2.31,0,4.49-1.064,5.912-2.885S447.336,455.922,446.776,453.681z M207,127.5c0-13.51,10.991-24.5,24.5-24.5s24.5,10.99,24.5,24.5
		S245.009,152,231.5,152S207,141.01,207,127.5z M246.323,90.897C241.742,89.035,236.741,88,231.5,88
		c-5.241,0-10.242,1.035-14.823,2.897L144.847,47h173.306L246.323,90.897z M216.673,164.102c4.581,1.863,9.584,2.898,14.827,2.898
		c5.242,0,10.245-1.035,14.826-2.898l84.107,51.398l-84.107,51.398c-4.581-1.862-9.584-2.898-14.826-2.898
		c-5.242,0-10.245,1.035-14.826,2.898L132.567,215.5L216.673,164.102z M207,303.5c0-13.51,10.991-24.5,24.5-24.5
		s24.5,10.99,24.5,24.5S245.009,328,231.5,328S207,317.01,207,303.5z M216.677,340.103c4.58,1.862,9.582,2.897,14.823,2.897
		s10.242-1.035,14.823-2.897L318.154,384H144.846L216.677,340.103z M346.919,384l-86.965-53.145
		c3.935-4.091,6.996-9.023,8.887-14.499L379.532,384H346.919z M384,215.5c0,2.938-1.562,5.721-4.067,7.257l-111.092,67.889
		c-1.891-5.476-4.951-10.408-8.885-14.499l88.771-54.248c2.229-1.362,3.589-3.786,3.589-6.399c0-2.612-1.36-5.037-3.589-6.399
		l-88.771-54.248c3.934-4.091,6.995-9.023,8.885-14.499l111.083,67.885C382.438,209.779,384,212.562,384,215.5z M268.84,114.644
		c-1.891-5.476-4.952-10.408-8.886-14.499L346.918,47h32.615L268.84,114.644z M39,32V15h385v17 M116.082,47l86.964,53.145
		c-3.935,4.091-6.996,9.023-8.887,14.499L83.467,47H116.082z M79,215.5c0-2.938,1.562-5.721,4.067-7.257l111.091-67.889
		c1.89,5.476,4.951,10.408,8.885,14.499l-88.771,54.248c-2.229,1.362-3.589,3.787-3.589,6.399s1.36,5.037,3.589,6.399l88.771,54.248
		c-3.934,4.091-6.995,9.023-8.885,14.499L83.076,222.762C80.562,221.221,79,218.438,79,215.5z M194.159,316.355
		c1.891,5.477,4.952,10.408,8.887,14.5L116.081,384H83.467L194.159,316.355z M33.106,448l10.64-42.562
		c0.948-3.791,4.339-6.438,8.246-6.438h359.016c3.907,0,7.298,2.647,8.246,6.438L429.894,448H33.106z"/>
	<path d="M244,127.5c0-6.893-5.607-12.5-12.5-12.5s-12.5,5.607-12.5,12.5s5.607,12.5,12.5,12.5S244,134.393,244,127.5z"/>
	<path d="M244,303.5c0-6.893-5.607-12.5-12.5-12.5s-12.5,5.607-12.5,12.5s5.607,12.5,12.5,12.5S244,310.393,244,303.5z"/>
</g>
<g>
</g>
<g>
</g>
<g>
</g>
<g>
</g>
<g>
</g>
<g>
</g>
<g>
</g>
<g>
</g>
<g>
</g>
<g>
</g>
<g>
</g>
<g>
</g>
<g>
</g>
<g>
</g>
<g>
</g>
</svg>
