<?xml version="1.0" encoding="iso-8859-1"?>
<!-- Generator: Adobe Illustrator 19.0.0, SVG Export Plug-In . SVG Version: 6.00 Build 0)  -->
<svg version="1.1" id="Layer_1" xmlns="http://www.w3.org/2000/svg" xmlns:xlink="http://www.w3.org/1999/xlink" x="0px" y="0px"
	 viewBox="0 0 512 512" style="enable-background:new 0 0 512 512;" xml:space="preserve">
<g>
	<g>
		<path d="M303.02,287.882v-9.865c19.734-5.813,37.51-17.633,50.544-33.772c14.573-18.045,22.599-40.774,22.599-64
			c0-25.44-9.239-49.398-26.122-68.053V0h-151.51v112.193c-16.883,18.656-26.122,42.612-26.122,68.052
			c0,23.226,8.026,45.955,22.599,64c13.025,16.127,30.783,27.941,50.544,33.768v56.354h7.837c33.13,0,60.082,26.952,60.082,60.082
			s-26.952,60.082-60.082,60.082s-60.082-26.952-60.082-60.082v-7.837h-57.469v7.837C135.837,459.267,188.57,512,253.388,512
			s117.551-52.733,117.551-117.551C370.939,348.507,344.455,307.238,303.02,287.882z M214.204,15.673h120.163v82.303
			c-17.289-12.73-38.133-19.61-60.082-19.61c-21.956,0-42.807,6.884-60.082,19.604V15.673z M207.201,234.397
			c-12.33-15.266-19.12-34.497-19.12-54.152c0-23.073,8.976-44.7,25.308-60.931c16.196-16.297,37.822-25.273,60.896-25.273
			s44.7,8.976,60.896,25.274l0.034,0.034c16.298,16.196,25.274,37.822,25.274,60.896c0,19.654-6.79,38.886-19.12,54.152
			c-12.162,15.059-29.181,25.695-47.863,29.933c-6.422,1.406-12.889,2.119-19.222,2.119s-12.8-0.713-19.163-2.105
			C236.382,260.092,219.363,249.456,207.201,234.397z M253.388,496.327c-53.539,0-97.564-41.513-101.58-94.041h26.227
			c3.935,38.102,36.228,67.918,75.353,67.918c41.772,0,75.755-33.983,75.755-75.755c0-39.125-29.816-71.419-67.918-75.353v-37.818
			c4.373,0.556,8.741,0.845,13.061,0.845c4.318,0,8.681-0.288,13.061-0.846v16.947l4.835,2.005
			c38.322,15.891,63.084,52.875,63.084,94.219C355.265,450.625,309.564,496.327,253.388,496.327z"/>
	</g>
</g>
<g>
	<g>
		<path d="M274.286,125.388c-30.248,0-54.857,24.609-54.857,54.857c0,30.248,24.609,54.857,54.857,54.857v-15.673
			c-21.606,0-39.184-17.577-39.184-39.184c0-21.606,17.577-39.184,39.184-39.184s39.184,17.577,39.184,39.184h15.674
			C329.143,149.997,304.533,125.388,274.286,125.388z"/>
	</g>
</g>
<g>
	<g>
		<rect x="258.612" y="172.408" width="31.347" height="15.674"/>
	</g>
</g>
<g>
	<g>
		<rect x="227.265" y="41.796" width="94.041" height="15.673"/>
	</g>
</g>
<g>
</g>
<g>
</g>
<g>
</g>
<g>
</g>
<g>
</g>
<g>
</g>
<g>
</g>
<g>
</g>
<g>
</g>
<g>
</g>
<g>
</g>
<g>
</g>
<g>
</g>
<g>
</g>
<g>
</g>
</svg>
