<?xml version="1.0" encoding="iso-8859-1"?>
<!-- Generator: Adobe Illustrator 19.0.0, SVG Export Plug-In . SVG Version: 6.00 Build 0)  -->
<svg version="1.1" id="Layer_1" xmlns="http://www.w3.org/2000/svg" xmlns:xlink="http://www.w3.org/1999/xlink" x="0px" y="0px"
	 viewBox="0 0 512 512" style="enable-background:new 0 0 512 512;" xml:space="preserve">
<g>
	<g>
		<g>
			<path d="M434.216,188.885l3.115-3.115V224c0,5.888,4.779,10.667,10.667,10.667c5.888,0,10.667-4.779,10.667-10.667v-38.229
				l3.115,3.115c2.091,2.069,4.821,3.115,7.552,3.115c2.731,0,5.461-1.045,7.552-3.115c4.16-4.16,4.16-10.923,0-15.083
				l-21.333-21.333c-1.003-1.003-2.176-1.771-3.499-2.325c-0.747-0.299-1.515-0.341-2.304-0.469
				c-0.576-0.085-1.131-0.341-1.749-0.341c-0.811,0-1.536,0.299-2.283,0.469c-0.576,0.128-1.195,0.128-1.749,0.363
				c-1.344,0.555-2.539,1.365-3.563,2.368l-21.269,21.269c-4.16,4.16-4.16,10.923,0,15.083
				C423.293,193.045,430.056,193.045,434.216,188.885z"/>
			<path d="M266.664,96c0-29.397-23.936-53.333-53.333-53.333S159.997,66.603,159.997,96s23.936,53.333,53.333,53.333
				S266.664,125.397,266.664,96z M213.331,128c-17.643,0-32-14.357-32-32c0-17.643,14.357-32,32-32c17.643,0,32,14.357,32,32
				C245.331,113.643,230.973,128,213.331,128z"/>
			<path d="M255.997,149.333h-42.667h-42.667c-29.397,0-53.333,23.936-53.333,53.333v106.667c0,17.643,14.357,32,32,32
				c3.733,0,7.339-0.64,10.667-1.813v97.813c0,17.643,14.357,32,32,32c8.192,0,15.659-3.093,21.333-8.171
				c5.675,5.077,13.141,8.171,21.333,8.171c17.643,0,32-14.357,32-32V339.52c3.328,1.173,6.933,1.813,10.667,1.813
				c17.643,0,32-14.357,32-32V202.667C309.331,173.269,285.395,149.333,255.997,149.333z M287.997,309.333
				c0,5.888-4.779,10.667-10.667,10.667s-10.667-4.779-10.667-10.667V224c0-5.888-4.779-10.667-10.667-10.667
				s-10.667,4.779-10.667,10.667v213.333c0,5.888-4.779,10.667-10.667,10.667s-10.667-4.779-10.667-10.667v-64
				c0-5.888-4.779-10.667-10.667-10.667s-10.667,4.779-10.667,10.667v64c0,5.888-4.779,10.667-10.667,10.667
				s-10.667-4.779-10.667-10.667V224c0-5.888-4.779-10.667-10.667-10.667s-10.667,4.779-10.667,10.667v85.333
				c0,5.888-4.779,10.667-10.667,10.667s-10.667-4.779-10.667-10.667V202.667c0-17.643,14.357-32,32-32h85.333
				c17.643,0,32,14.357,32,32V309.333z"/>
			<path d="M362.664,0H63.997c-17.643,0-32,14.357-32,32v448c0,17.643,14.357,32,32,32h298.667c17.643,0,32-14.357,32-32V32
				C394.664,14.357,380.307,0,362.664,0z M373.331,480c0,5.888-4.779,10.667-10.667,10.667H63.997
				c-5.888,0-10.667-4.779-10.667-10.667V32c0-5.888,4.779-10.667,10.667-10.667h298.667c5.888,0,10.667,4.779,10.667,10.667V480z"
				/>
			<path d="M461.757,323.136l-3.093,3.093V288c0-5.888-4.779-10.667-10.667-10.667c-5.888,0-10.667,4.779-10.667,10.667v38.272
				l-3.136-3.136c-4.16-4.16-10.923-4.16-15.083,0s-4.16,10.923,0,15.083l21.333,21.333c0.363,0.341,0.811,0.491,1.195,0.789
				c0.725,0.555,1.429,1.152,2.283,1.493c1.301,0.555,2.688,0.832,4.075,0.832c1.387,0,2.773-0.277,4.075-0.832
				c1.323-0.555,2.517-1.365,3.52-2.368l21.248-21.248c4.16-4.16,4.16-10.923,0-15.083
				C472.68,318.976,465.917,318.976,461.757,323.136z"/>
		</g>
	</g>
</g>
<g>
</g>
<g>
</g>
<g>
</g>
<g>
</g>
<g>
</g>
<g>
</g>
<g>
</g>
<g>
</g>
<g>
</g>
<g>
</g>
<g>
</g>
<g>
</g>
<g>
</g>
<g>
</g>
<g>
</g>
</svg>
