<?xml version="1.0" encoding="iso-8859-1"?>
<!-- Generator: Adobe Illustrator 19.0.0, SVG Export Plug-In . SVG Version: 6.00 Build 0)  -->
<svg version="1.1" id="Layer_1" xmlns="http://www.w3.org/2000/svg" xmlns:xlink="http://www.w3.org/1999/xlink" x="0px" y="0px"
	 viewBox="0 0 512 512" style="enable-background:new 0 0 512 512;" xml:space="preserve">
<g>
	<rect x="159.967" y="64.198" style="fill:#1D1D1B;" width="192.071" height="15.645"/>
	<polygon style="fill:#1D1D1B;" points="136.138,34.891 136.138,160.057 151.784,160.057 151.784,34.891 172.382,55.49 
		183.446,44.427 143.961,4.943 104.477,44.427 115.54,55.49 	"/>
	<polygon style="fill:#1D1D1B;" points="328.555,123.632 368.039,163.116 407.524,123.632 396.46,112.569 375.862,133.168 
		375.862,0 360.216,0 360.216,133.168 339.618,112.569 	"/>
	<path style="fill:#1D1D1B;" d="M167.789,248.087v-40.014c0-13.139-10.689-23.829-23.828-23.829
		c-13.14,0-23.829,10.69-23.829,23.829v40.014c0,13.139,10.689,23.829,23.829,23.829C157.1,271.916,167.789,261.226,167.789,248.087
		z M135.779,248.087v-40.014c0-4.512,3.671-8.183,8.183-8.183c4.511,0,8.182,3.671,8.182,8.183v40.014
		c0,4.512-3.671,8.183-8.182,8.183C139.449,256.271,135.779,252.599,135.779,248.087z"/>
	<polygon style="fill:#1D1D1B;" points="207.803,400.141 207.803,288.282 80.118,288.282 80.118,400.141 95.763,400.141 
		95.763,303.927 192.158,303.927 192.158,400.141 	"/>
	<rect x="127.957" y="392.319" style="fill:#1D1D1B;" width="32.01" height="15.645"/>
	<path style="fill:#1D1D1B;" d="M391.918,248.087v-40.014c0-13.139-10.689-23.829-23.829-23.829
		c-13.139,0-23.828,10.69-23.828,23.829v40.014c0,13.139,10.689,23.829,23.828,23.829
		C381.229,271.916,391.918,261.226,391.918,248.087z M359.907,248.087v-40.014c0-4.512,3.671-8.183,8.182-8.183
		c4.512,0,8.184,3.671,8.184,8.183v40.014c0,4.512-3.671,8.183-8.184,8.183C363.578,256.271,359.907,252.599,359.907,248.087z"/>
	<polygon style="fill:#1D1D1B;" points="417.551,436.491 430.569,427.812 399.871,381.766 399.871,288.282 336.209,288.282 
		336.209,381.766 305.511,427.812 318.529,436.491 351.855,386.504 351.855,303.927 384.226,303.927 384.226,386.504 	"/>
	<polygon style="fill:#1D1D1B;" points="384.047,64.203 384.047,79.848 464.253,79.848 464.253,496.355 399.871,496.355 
		399.871,432.152 384.226,432.152 384.226,496.355 351.855,496.355 351.855,432.152 336.209,432.152 336.209,496.355 
		183.795,496.355 183.795,336.118 168.15,336.118 168.15,496.355 151.784,496.355 151.784,432.152 136.138,432.152 136.138,496.355 
		119.772,496.355 119.772,336.118 104.127,336.118 104.127,496.355 47.747,496.355 47.747,79.848 127.956,79.848 127.956,64.203 
		32.102,64.203 32.102,512 479.898,512 479.898,64.203 	"/>
</g>
<g>
</g>
<g>
</g>
<g>
</g>
<g>
</g>
<g>
</g>
<g>
</g>
<g>
</g>
<g>
</g>
<g>
</g>
<g>
</g>
<g>
</g>
<g>
</g>
<g>
</g>
<g>
</g>
<g>
</g>
</svg>
